HIERARCHY
ROOT joint_0
{
	OFFSET 0.000000 0.000000 0.000000
	CHANNELS 6 Xposition Yposition Zposition Zrotation Yrotation Xrotation 
	JOINT joint_1
	{
		OFFSET 14.113007 -2.961990 123.953979
		CHANNELS 3 Zrotation Yrotation Xrotation
		JOINT joint_2
		{
			OFFSET 0.764000 -2.434006 113.871948
			CHANNELS 3 Zrotation Yrotation Xrotation
			JOINT joint_3
			{
				OFFSET 0.186996 -2.169998 113.753052
				CHANNELS 3 Zrotation Yrotation Xrotation
				JOINT joint_4
				{
					OFFSET 16.096001 -2.720001 160.853027
					CHANNELS 3 Zrotation Yrotation Xrotation
					JOINT joint_5
					{
						OFFSET 34.392006 -0.188995 92.567017
						CHANNELS 3 Zrotation Yrotation Xrotation
						End Site
						{
							OFFSET 0.000000 0.000000 0.000000
						}
					}
				}
				JOINT joint_6
				{
					OFFSET 9.183998 -36.684006 89.597046
					CHANNELS 3 Zrotation Yrotation Xrotation
					JOINT joint_7
					{
						OFFSET 0.486000 -164.365997 -28.984009
						CHANNELS 3 Zrotation Yrotation Xrotation
						JOINT joint_8
						{
							OFFSET 38.899002 -34.967010 -291.651978
							CHANNELS 3 Zrotation Yrotation Xrotation
							JOINT joint_9
							{
								OFFSET 41.714005 -45.890991 -258.857056
								CHANNELS 3 Zrotation Yrotation Xrotation
								End Site
								{
									OFFSET 0.000000 0.000000 0.000000
								}
							}
						}
					}
				}
				JOINT joint_10
				{
					OFFSET 8.867004 33.650002 90.817993
					CHANNELS 3 Zrotation Yrotation Xrotation
					JOINT joint_11
					{
						OFFSET 0.018997 164.299999 -29.368042
						CHANNELS 3 Zrotation Yrotation Xrotation
						JOINT joint_12
						{
							OFFSET 29.440994 30.887997 -293.216919
							CHANNELS 3 Zrotation Yrotation Xrotation
							JOINT joint_13
							{
								OFFSET 46.174011 54.490005 -256.422058
								CHANNELS 3 Zrotation Yrotation Xrotation
								End Site
								{
									OFFSET 0.000000 0.000000 0.000000
								}
							}
						}
					}
				}
			}
		}
	}
	JOINT joint_14
	{
		OFFSET -2.264000 -89.466995 -116.150024
		CHANNELS 3 Zrotation Yrotation Xrotation
		JOINT joint_15
		{
			OFFSET -16.400993 -17.452988 -493.781982
			CHANNELS 3 Zrotation Yrotation Xrotation
			JOINT joint_16
			{
				OFFSET -50.497004 -13.404022 -424.754013
				CHANNELS 3 Zrotation Yrotation Xrotation
				JOINT joint_17
				{
					OFFSET 198.546007 -19.341003 -89.309000
					CHANNELS 3 Zrotation Yrotation Xrotation
					End Site
					{
						OFFSET 0.000000 0.000000 0.000000
					}
				}
			}
		}
	}
	JOINT joint_18
	{
		OFFSET -0.867996 96.016006 -110.817993
		CHANNELS 3 Zrotation Yrotation Xrotation
		JOINT joint_19
		{
			OFFSET -10.130997 24.658998 -493.645020
			CHANNELS 3 Zrotation Yrotation Xrotation
			JOINT joint_20
			{
				OFFSET -48.871004 19.434999 -424.714005
				CHANNELS 3 Zrotation Yrotation Xrotation
				JOINT joint_21
				{
					OFFSET 195.579996 24.926001 -94.327003
					CHANNELS 3 Zrotation Yrotation Xrotation
					End Site
					{
						OFFSET 0.000000 0.000000 0.000000
					}
				}
			}
		}
	}
}
MOTION
Frames: 11
Frame Time: 0.016667
727.979980 -263.561000 1063.474980 -7.647088 -2.332954 -2.803321 -1.540128 5.572931 8.180339 -0.837799 -0.783873 -1.507707 -0.713766 1.036640 1.313808 -0.004614 4.695110 0.099294 0.000000 0.000000 0.000000 -1.436268 1.070663 0.079069 -0.093597 0.733290 -14.575222 3.891595 -8.738825 10.533777 0.000000 0.000000 0.000000 -5.823803 0.176511 0.727360 1.593252 1.459275 6.604947 0.834052 5.631694 -4.508304 0.000000 0.000000 0.000000 4.054141 -28.718163 0.480135 -2.013054 49.735663 7.196614 -4.289088 -10.962065 -3.010040 0.000000 0.000000 0.000000 -3.031933 0.387315 6.528229 0.224137 59.181556 1.766537 -19.219940 14.693060 -8.443640 0.000000 0.000000 0.000000 
751.711000 -265.519010 1060.223020 -7.895583 -3.066503 -3.054151 -1.394142 6.271106 9.204100 -0.433973 -0.854068 -1.705654 -0.277918 1.153797 1.471091 -0.078857 4.684628 0.280202 0.000000 0.000000 0.000000 -1.432408 -0.333029 0.808576 -0.742466 -0.564838 -14.787556 2.257378 -3.153391 8.550831 0.000000 0.000000 0.000000 -5.754315 -0.530454 0.718635 0.849256 0.635410 5.514833 -0.176614 2.918751 -6.376320 0.000000 0.000000 0.000000 4.548486 -27.332893 0.537256 -1.873765 51.576508 7.886008 -4.271033 -12.011527 -3.195517 0.000000 0.000000 0.000000 -2.256163 -1.971576 6.041492 1.253946 64.066781 3.772326 -20.538773 12.850613 -8.757213 0.000000 0.000000 0.000000 
775.065000 -266.778990 1058.607060 -8.584441 -3.548338 -3.557807 -1.107857 6.692743 10.246037 0.059931 -0.832795 -1.874106 0.231337 1.152259 1.647663 -0.143180 4.662364 0.424436 0.000000 0.000000 0.000000 -0.753364 -1.338921 1.121078 -1.260338 -1.344154 -13.767924 0.509518 1.423570 4.475022 0.000000 0.000000 0.000000 -5.560546 -1.071388 0.862420 0.117452 -0.049005 3.285721 -1.025184 0.208377 -7.978500 0.000000 0.000000 0.000000 5.093575 -26.017885 1.088393 -1.652053 52.705622 8.291275 -4.202717 -12.850371 -3.335575 0.000000 0.000000 0.000000 -1.160434 -4.544653 6.012740 2.394353 68.184818 5.394672 -20.842054 11.116095 -8.876041 0.000000 0.000000 0.000000 
797.997990 -267.524990 1058.602050 -9.492374 -3.856818 -4.178842 -0.735086 6.953574 11.250635 0.595149 -0.771174 -2.021444 0.769012 1.105992 1.815351 -0.190637 4.582776 0.523705 0.000000 0.000000 0.000000 0.366434 -2.078785 1.386719 -1.512576 -1.825210 -12.329675 -1.069995 5.445145 -0.647521 0.000000 0.000000 0.000000 -5.307368 -1.501608 0.992567 -0.525660 -0.623254 0.599851 -1.789098 -2.654401 -9.638659 0.000000 0.000000 0.000000 5.616806 -24.637757 1.897963 -1.395947 53.146670 8.486849 -4.104627 -13.602562 -3.434307 0.000000 0.000000 0.000000 0.063510 -7.430159 6.199811 3.445693 71.771649 6.634614 -20.484524 9.213131 -8.825889 0.000000 0.000000 0.000000 
820.591000 -268.613010 1059.933960 -10.058848 -4.050927 -4.683721 -0.440709 7.066710 11.913569 1.018168 -0.711607 -2.096761 1.186744 1.066917 1.915490 -0.234526 4.416797 0.619639 0.000000 0.000000 0.000000 1.306506 -2.539658 1.772774 -1.535275 -2.111027 -11.348005 -2.003296 8.163036 -4.239855 0.000000 0.000000 0.000000 -5.151961 -1.924442 0.961250 -0.938706 -1.122636 -1.327923 -2.468547 -5.563506 -11.469640 0.000000 0.000000 0.000000 5.900971 -23.060120 2.588376 -1.231354 53.022590 8.541993 -4.035396 -14.238200 -3.498108 0.000000 0.000000 0.000000 1.082351 -10.627648 6.326467 4.071964 74.733824 7.377241 -19.874252 7.331231 -8.624621 0.000000 0.000000 0.000000 
842.755000 -270.513000 1062.719970 -9.931909 -4.121290 -4.969943 -0.318664 6.973353 12.050044 1.238153 -0.676804 -2.090450 1.398878 1.039812 1.926432 -0.309490 4.151429 0.795762 0.000000 0.000000 0.000000 1.774867 -2.708867 2.159702 -1.517818 -2.196328 -10.776663 -2.275516 8.954137 -5.343024 0.000000 0.000000 0.000000 -5.172670 -2.397000 0.883497 -1.109997 -1.569646 -2.135720 -3.094846 -8.583861 -13.592692 0.000000 0.000000 0.000000 5.808253 -21.169816 2.972893 -1.265821 52.238683 8.529208 -4.047326 -14.740756 -3.534599 0.000000 0.000000 0.000000 1.812548 -14.220808 6.191227 4.168656 77.004040 7.646904 -19.089259 5.714604 -8.168145 0.000000 0.000000 0.000000 
864.578000 -272.754000 1066.842040 -9.440081 -4.089547 -5.158987 -0.278858 6.784802 11.869708 1.336156 -0.675517 -2.052823 1.493156 1.013506 1.884447 -0.406569 3.806302 1.027782 0.000000 0.000000 0.000000 1.998054 -2.664644 2.405721 -1.480419 -2.110156 -10.174604 -2.164964 8.353677 -5.043872 0.000000 0.000000 0.000000 -5.276937 -2.867312 0.782664 -1.108437 -1.934593 -2.343362 -3.676429 -11.735534 -15.950271 0.000000 0.000000 0.000000 5.448631 -19.039330 3.275090 -1.407438 50.829208 8.376848 -4.105911 -15.091248 -3.539037 0.000000 0.000000 0.000000 2.381807 -18.039280 5.884240 3.893101 78.454419 7.455343 -18.279668 4.327838 -7.555911 0.000000 0.000000 0.000000 
886.409000 -274.786990 1071.677980 -9.022242 -4.024156 -5.344076 -0.243866 6.709375 11.640709 1.427676 -0.704449 -2.027788 1.593305 1.005271 1.832048 -0.491159 3.426194 1.230675 0.000000 0.000000 0.000000 2.055597 -2.549458 2.460142 -1.394000 -1.988767 -9.498649 -1.844221 7.119169 -4.013270 0.000000 0.000000 0.000000 -5.370151 -3.250497 0.590484 -0.992678 -2.169054 -2.290625 -4.195929 -14.904967 -18.329776 0.000000 0.000000 0.000000 4.984896 -16.830210 3.705286 -1.495894 49.103782 7.952813 -4.138778 -15.249014 -3.503239 0.000000 0.000000 0.000000 2.785367 -21.713043 5.621531 3.367169 78.896719 6.726505 -17.901303 2.935748 -7.096852 0.000000 0.000000 0.000000 
908.213010 -276.545990 1077.277950 -8.730904 -3.920372 -5.532555 -0.227787 6.790440 11.396033 1.531682 -0.739483 -1.994911 1.712675 1.033684 1.784321 -0.548163 2.995015 1.367058 0.000000 0.000000 0.000000 1.874814 -2.399710 2.309431 -1.232343 -1.888353 -8.758492 -1.306490 5.366312 -2.258087 0.000000 0.000000 0.000000 -5.429960 -3.474469 0.323307 -0.780641 -2.214270 -2.014859 -4.691817 -18.416193 -20.730197 0.000000 0.000000 0.000000 4.415795 -14.557332 4.329560 -1.515955 47.058722 7.116486 -4.152252 -15.212722 -3.435505 0.000000 0.000000 0.000000 2.990043 -25.146064 5.547765 2.614836 78.067461 5.329689 -18.062257 1.723390 -6.889493 0.000000 0.000000 0.000000 
930.023990 -278.096980 1083.589970 -8.450259 -3.768925 -5.678082 -0.236695 6.950009 11.033895 1.608372 -0.791138 -1.933107 1.804401 1.079035 1.722540 -0.586989 2.528461 1.463557 0.000000 0.000000 0.000000 1.533824 -2.153032 2.033329 -0.986577 -1.737626 -8.034080 -0.505513 2.935350 0.193105 0.000000 0.000000 0.000000 -5.478994 -3.598746 0.030905 -0.488503 -2.131087 -1.504798 -5.152013 -22.064255 -23.191259 0.000000 0.000000 0.000000 3.747528 -12.183158 4.973022 -1.493339 44.653108 6.037703 -4.112289 -14.951696 -3.324215 0.000000 0.000000 0.000000 2.994154 -28.321030 5.585837 1.670669 76.000535 3.399929 -18.536730 0.947035 -6.899643 0.000000 0.000000 0.000000 
952.294980 -279.084990 1089.837040 -8.311263 -3.580723 -5.771963 -0.204795 7.089552 10.587710 1.668101 -0.858185 -1.879383 1.872461 1.106413 1.651949 -0.612246 2.136707 1.530957 0.000000 0.000000 0.000000 1.320735 -1.814216 1.684453 -0.687262 -1.485956 -7.349135 0.408307 0.180076 2.677634 0.000000 0.000000 0.000000 -5.494019 -3.703650 -0.236171 -0.224091 -2.046070 -1.098394 -5.510577 -24.887275 -25.499917 0.000000 0.000000 0.000000 3.149904 -9.844479 5.412513 -1.354691 42.187685 5.075830 -3.898865 -14.458255 -3.133570 0.000000 0.000000 0.000000 2.812367 -31.099250 5.703363 0.605056 73.013647 1.254325 -19.252736 0.218789 -7.101447 0.000000 0.000000 0.000000 
